<svg width="1784" height="1066" viewBox="0 0 1784 1066" fill="none" xmlns="http://www.w3.org/2000/svg">
<g clip-path="url(#clip0_41_1633)">
<line x1="0.860521" y1="2.83088e-08" x2="0.860475" y2="1066" stroke="#676767" stroke-opacity="0.16" stroke-width="1.29526"/>
<line x1="42.3078" y1="2.83088e-08" x2="42.3077" y2="1066" stroke="#676767" stroke-opacity="0.16" stroke-width="1.29526"/>
<line x1="83.757" y1="2.83088e-08" x2="83.757" y2="1066" stroke="#676767" stroke-opacity="0.16" stroke-width="1.29526"/>
<line x1="125.204" y1="2.83088e-08" x2="125.204" y2="1066" stroke="#676767" stroke-opacity="0.16" stroke-width="1.29526"/>
<line x1="166.652" y1="2.83088e-08" x2="166.651" y2="1066" stroke="#676767" stroke-opacity="0.16" stroke-width="1.29526"/>
<line x1="208.101" y1="2.83088e-08" x2="208.101" y2="1066" stroke="#676767" stroke-opacity="0.16" stroke-width="1.29526"/>
<line x1="249.55" y1="2.83088e-08" x2="249.55" y2="1066" stroke="#676767" stroke-opacity="0.16" stroke-width="1.29526"/>
<line x1="290.999" y1="2.83088e-08" x2="290.999" y2="1066" stroke="#676767" stroke-opacity="0.16" stroke-width="1.29526"/>
<line x1="332.448" y1="2.83088e-08" x2="332.448" y2="1066" stroke="#676767" stroke-opacity="0.16" stroke-width="1.29526"/>
<line x1="373.894" y1="2.83088e-08" x2="373.894" y2="1066" stroke="#676767" stroke-opacity="0.16" stroke-width="1.29526"/>
<line x1="415.343" y1="2.83088e-08" x2="415.343" y2="1066" stroke="#676767" stroke-opacity="0.16" stroke-width="1.29526"/>
<line x1="456.792" y1="2.83088e-08" x2="456.792" y2="1066" stroke="#676767" stroke-opacity="0.16" stroke-width="1.29526"/>
<line x1="498.241" y1="2.83088e-08" x2="498.241" y2="1066" stroke="#676767" stroke-opacity="0.16" stroke-width="1.29526"/>
<line x1="539.691" y1="2.83088e-08" x2="539.691" y2="1066" stroke="#676767" stroke-opacity="0.16" stroke-width="1.29526"/>
<line x1="581.136" y1="2.83088e-08" x2="581.136" y2="1066" stroke="#676767" stroke-opacity="0.16" stroke-width="1.29526"/>
<line x1="622.585" y1="2.83088e-08" x2="622.585" y2="1066" stroke="#676767" stroke-opacity="0.16" stroke-width="1.29526"/>
<line x1="664.034" y1="2.83088e-08" x2="664.034" y2="1066" stroke="#676767" stroke-opacity="0.16" stroke-width="1.29526"/>
<line x1="705.484" y1="2.83088e-08" x2="705.484" y2="1066" stroke="#676767" stroke-opacity="0.16" stroke-width="1.29526"/>
<line x1="746.933" y1="2.83088e-08" x2="746.933" y2="1066" stroke="#676767" stroke-opacity="0.16" stroke-width="1.29526"/>
<line x1="788.378" y1="2.83088e-08" x2="788.378" y2="1066" stroke="#676767" stroke-opacity="0.16" stroke-width="1.29526"/>
<line x1="829.827" y1="2.83088e-08" x2="829.827" y2="1066" stroke="#676767" stroke-opacity="0.16" stroke-width="1.29526"/>
<line x1="871.277" y1="2.83088e-08" x2="871.276" y2="1066" stroke="#676767" stroke-opacity="0.16" stroke-width="1.29526"/>
<line x1="912.726" y1="2.83088e-08" x2="912.726" y2="1066" stroke="#676767" stroke-opacity="0.16" stroke-width="1.29526"/>
<line x1="954.171" y1="2.83088e-08" x2="954.171" y2="1066" stroke="#676767" stroke-opacity="0.16" stroke-width="1.29526"/>
<line x1="995.62" y1="2.83088e-08" x2="995.62" y2="1066" stroke="#676767" stroke-opacity="0.16" stroke-width="1.29526"/>
<line x1="1037.07" y1="2.83088e-08" x2="1037.07" y2="1066" stroke="#676767" stroke-opacity="0.16" stroke-width="1.29526"/>
<line x1="1078.52" y1="2.83088e-08" x2="1078.52" y2="1066" stroke="#676767" stroke-opacity="0.16" stroke-width="1.29526"/>
<line x1="1119.97" y1="2.83088e-08" x2="1119.97" y2="1066" stroke="#676767" stroke-opacity="0.16" stroke-width="1.29526"/>
<line x1="1161.41" y1="2.83088e-08" x2="1161.41" y2="1066" stroke="#676767" stroke-opacity="0.16" stroke-width="1.29526"/>
<line x1="1202.86" y1="2.83088e-08" x2="1202.86" y2="1066" stroke="#676767" stroke-opacity="0.16" stroke-width="1.29526"/>
<line x1="1244.31" y1="2.83088e-08" x2="1244.31" y2="1066" stroke="#676767" stroke-opacity="0.16" stroke-width="1.29526"/>
<line x1="1285.76" y1="2.83088e-08" x2="1285.76" y2="1066" stroke="#676767" stroke-opacity="0.16" stroke-width="1.29526"/>
<line x1="1327.21" y1="2.83088e-08" x2="1327.21" y2="1066" stroke="#676767" stroke-opacity="0.16" stroke-width="1.29526"/>
<line x1="1368.66" y1="2.83088e-08" x2="1368.66" y2="1066" stroke="#676767" stroke-opacity="0.16" stroke-width="1.29526"/>
<line x1="1410.1" y1="2.83088e-08" x2="1410.1" y2="1066" stroke="#676767" stroke-opacity="0.16" stroke-width="1.29526"/>
<line x1="1451.55" y1="2.83088e-08" x2="1451.55" y2="1066" stroke="#676767" stroke-opacity="0.16" stroke-width="1.29526"/>
<line x1="1493" y1="2.83088e-08" x2="1493" y2="1066" stroke="#676767" stroke-opacity="0.16" stroke-width="1.29526"/>
<line x1="1534.45" y1="2.83088e-08" x2="1534.45" y2="1066" stroke="#676767" stroke-opacity="0.16" stroke-width="1.29526"/>
<line x1="1575.9" y1="2.83088e-08" x2="1575.9" y2="1066" stroke="#676767" stroke-opacity="0.16" stroke-width="1.29526"/>
<line x1="1617.35" y1="2.83088e-08" x2="1617.35" y2="1066" stroke="#676767" stroke-opacity="0.16" stroke-width="1.29526"/>
<line x1="1658.8" y1="2.83088e-08" x2="1658.8" y2="1066" stroke="#676767" stroke-opacity="0.16" stroke-width="1.29526"/>
<line x1="1700.25" y1="2.83088e-08" x2="1700.25" y2="1066" stroke="#676767" stroke-opacity="0.16" stroke-width="1.29526"/>
<line x1="1741.69" y1="2.83088e-08" x2="1741.69" y2="1066" stroke="#676767" stroke-opacity="0.16" stroke-width="1.29526"/>
<line x1="1783.14" y1="2.83088e-08" x2="1783.14" y2="1066" stroke="#676767" stroke-opacity="0.16" stroke-width="1.29526"/>
<line x1="1887.41" y1="1.61882" x2="-106.001" y2="1.61865" stroke="#676767" stroke-opacity="0.16" stroke-width="1.29526"/>
<line x1="1887.41" y1="45.009" x2="-106.001" y2="45.0088" stroke="#676767" stroke-opacity="0.16" stroke-width="1.29526"/>
<line x1="1887.41" y1="87.4279" x2="-106.001" y2="87.4277" stroke="#676767" stroke-opacity="0.16" stroke-width="1.29526"/>
<line x1="1887.41" y1="128.877" x2="-106.001" y2="128.876" stroke="#676767" stroke-opacity="0.16" stroke-width="1.29526"/>
<line x1="1887.41" y1="170.325" x2="-106.001" y2="170.325" stroke="#676767" stroke-opacity="0.16" stroke-width="1.29526"/>
<line x1="1887.41" y1="211.774" x2="-106.001" y2="211.773" stroke="#676767" stroke-opacity="0.16" stroke-width="1.29526"/>
<line x1="1887.41" y1="253.222" x2="-106.001" y2="253.222" stroke="#676767" stroke-opacity="0.16" stroke-width="1.29526"/>
<line x1="1887.41" y1="294.67" x2="-106.001" y2="294.67" stroke="#676767" stroke-opacity="0.16" stroke-width="1.29526"/>
<line x1="1887.41" y1="336.119" x2="-106.001" y2="336.119" stroke="#676767" stroke-opacity="0.16" stroke-width="1.29526"/>
<line x1="1887.41" y1="377.567" x2="-106.001" y2="377.567" stroke="#676767" stroke-opacity="0.16" stroke-width="1.29526"/>
<line x1="1887.41" y1="419.016" x2="-106.001" y2="419.016" stroke="#676767" stroke-opacity="0.16" stroke-width="1.29526"/>
<line x1="1887.41" y1="460.464" x2="-106.001" y2="460.464" stroke="#676767" stroke-opacity="0.16" stroke-width="1.29526"/>
<line x1="1887.41" y1="501.913" x2="-106.001" y2="501.913" stroke="#676767" stroke-opacity="0.16" stroke-width="1.29526"/>
<line x1="1887.41" y1="543.361" x2="-106.001" y2="543.361" stroke="#676767" stroke-opacity="0.16" stroke-width="1.29526"/>
<line x1="1887.41" y1="584.809" x2="-106.001" y2="584.809" stroke="#676767" stroke-opacity="0.16" stroke-width="1.29526"/>
<line x1="1887.41" y1="626.258" x2="-106.001" y2="626.258" stroke="#676767" stroke-opacity="0.16" stroke-width="1.29526"/>
<line x1="1887.41" y1="667.706" x2="-106.001" y2="667.706" stroke="#676767" stroke-opacity="0.16" stroke-width="1.29526"/>
<line x1="1887.41" y1="709.154" x2="-106.001" y2="709.154" stroke="#676767" stroke-opacity="0.16" stroke-width="1.29526"/>
<line x1="1887.41" y1="750.603" x2="-106.001" y2="750.603" stroke="#676767" stroke-opacity="0.16" stroke-width="1.29526"/>
<line x1="1887.41" y1="792.051" x2="-106.001" y2="792.051" stroke="#676767" stroke-opacity="0.16" stroke-width="1.29526"/>
<line x1="1887.41" y1="833.5" x2="-106.001" y2="833.5" stroke="#676767" stroke-opacity="0.16" stroke-width="1.29526"/>
<line x1="1887.41" y1="874.948" x2="-106.001" y2="874.948" stroke="#676767" stroke-opacity="0.16" stroke-width="1.29526"/>
<line x1="1887.41" y1="916.397" x2="-106.001" y2="916.396" stroke="#676767" stroke-opacity="0.16" stroke-width="1.29526"/>
<line x1="1887.41" y1="957.845" x2="-106.001" y2="957.845" stroke="#676767" stroke-opacity="0.16" stroke-width="1.29526"/>
<line x1="1887.41" y1="999.294" x2="-106.001" y2="999.293" stroke="#676767" stroke-opacity="0.16" stroke-width="1.29526"/>
<line x1="1887.41" y1="1040.74" x2="-106.001" y2="1040.74" stroke="#676767" stroke-opacity="0.16" stroke-width="1.29526"/>
<line x1="1887.41" y1="0.647631" x2="821.406" y2="0.647537" stroke="#676767" stroke-opacity="0.16" stroke-width="1.29526"/>
</g>
<defs>
<clipPath id="clip0_41_1633">
<path d="M0 0H1784V1016C1784 1043.61 1761.61 1066 1734 1066H50C22.3857 1066 0 1043.61 0 1016V0Z" fill="white"/>
</clipPath>
</defs>
</svg>
