<svg width="350" height="225" viewBox="0 0 350 225" fill="none" xmlns="http://www.w3.org/2000/svg">
<g clip-path="url(#clip0_208_4)">
<path d="M290.084 214.914L284.811 216.291L276.792 197.33L284.575 195.297L290.084 214.914Z" fill="#FFB6B6"/>
<path d="M291.76 220.17L275.544 224.406L275.488 224.209C275.035 222.594 275.265 220.872 276.128 219.421C276.991 217.971 278.416 216.91 280.09 216.472L280.091 216.472L282.444 213.531L288.579 214.255L289.995 213.885L291.76 220.17Z" fill="#2F2E41"/>
<path d="M253.674 219.326L248.211 219.326L245.612 199.002L253.675 199.003L253.674 219.326Z" fill="#FFB6B6"/>
<path d="M253.867 224.823L237.066 224.822V224.617C237.066 222.945 237.755 221.341 238.982 220.158C240.208 218.975 241.871 218.311 243.605 218.311H243.606L246.675 216.065L252.4 218.311L253.867 218.311L253.867 224.823Z" fill="#2F2E41"/>
<path d="M251.342 102.136L244.01 202.286L255.817 203.295L272.289 129.072L270.464 172.017L277.001 205.794L286.995 201.133L286.829 165.963L299.95 109.129L296.457 102.136H251.342Z" fill="#2F2E41"/>
<path d="M298.275 114.597L298.349 114.498C302.261 109.215 296.376 96.5189 295.489 94.6785C296.543 94.3486 297.446 93.6766 298.044 92.7768C298.642 91.877 298.898 90.8052 298.768 89.7438L298.386 86.6069L297.987 83.5301L300.844 80.7744L300.852 80.7057L302.496 66.8295L304.887 57.6131C305.788 54.1289 305.711 50.4763 304.665 47.0303C303.618 43.5842 301.64 40.4688 298.932 38.0038L293.406 37.1575L286.69 30.9165H275.859L272.145 34.3384C265.213 35.511 264.022 35.1281 258.067 42.0198L260.773 63.4462L261.448 66.3938L261.446 70.3918L259.73 72.2311C259.112 72.8937 258.662 73.6863 258.418 74.5459C258.174 75.4055 258.141 76.3082 258.322 77.1822L258.548 78.2705C256.778 79.002 255.089 92.0023 254.685 93.8182L254.083 96.5307C253.567 97.187 250.163 101.564 250.163 102.761C250.163 102.94 250.301 103.114 250.596 103.306C252.915 104.821 262.163 115.567 267.837 113.377C273.882 111.046 297.908 114.543 298.15 114.578L298.275 114.597Z" fill="#3F3D56"/>
<path d="M299.73 89.6817C299.73 89.6817 296.949 74.5221 299.751 68.8208L310.867 69.5865L309.175 91.2136L299.458 115.226C299.606 115.966 299.549 116.731 299.292 117.442C299.035 118.154 298.587 118.787 297.994 119.278C297.401 119.769 296.684 120.099 295.916 120.236C295.148 120.373 294.356 120.312 293.62 120.058C292.884 119.805 292.231 119.368 291.727 118.792C291.223 118.216 290.886 117.522 290.75 116.78C290.614 116.038 290.684 115.275 290.953 114.567C291.222 113.86 291.68 113.233 292.281 112.752L299.73 89.6817Z" fill="#FFB6B6"/>
<path d="M310.867 60.7803L310.179 53.5551C309.92 50.8358 309.106 48.1927 307.784 45.7778C306.462 43.3629 304.658 41.2239 302.476 39.4839C301.12 38.4107 299.48 37.7247 297.741 37.5033C296.002 37.2819 294.234 37.534 292.636 38.2311C290.476 39.1901 288.774 40.9042 287.875 43.027C286.975 45.1498 286.945 47.5227 287.791 49.6661C290.36 56.1643 289.432 63.0364 294.442 63.8742L293.897 66.3715L298.823 81.8741L312.852 80.3068L310.867 60.7803Z" fill="#3F3D56"/>
<path d="M255.773 110.242C256.264 110.827 256.586 111.528 256.706 112.273C256.826 113.017 256.74 113.779 256.456 114.481C256.172 115.183 255.7 115.8 255.089 116.27C254.478 116.739 253.748 117.044 252.975 117.154C252.202 117.263 251.413 117.174 250.688 116.894C249.962 116.615 249.326 116.155 248.844 115.562C248.363 114.968 248.052 114.263 247.945 113.516C247.837 112.77 247.936 112.009 248.232 111.312L243.582 85.9284L246.317 64.4009L257.373 65.7506C258.963 71.8709 253.155 86.211 253.155 86.211L255.773 110.242Z" fill="#FFB6B6"/>
<path d="M242.193 74.5382L255.631 78.7263L260.805 70.9418L260.779 68.3901C265.861 68.5153 269.154 55.1144 272.994 49.2276C274.258 47.2855 274.711 44.9529 274.26 42.7013C273.809 40.4498 272.489 38.4472 270.566 37.0987C269.14 36.1131 267.457 35.5317 265.707 35.4201C263.957 35.3086 262.209 35.6714 260.661 36.4675C258.168 37.7614 255.964 39.518 254.178 41.6363C252.391 43.7545 251.055 46.1926 250.249 48.8103L248.106 55.7654L242.193 74.5382Z" fill="#3F3D56"/>
<path d="M282.005 27.9012C275.362 27.9012 269.977 22.7075 269.977 16.3007C269.977 9.89391 275.362 4.7002 282.005 4.7002C288.648 4.7002 294.033 9.89391 294.033 16.3007C294.033 22.7075 288.648 27.9012 282.005 27.9012Z" fill="#FFB6B6"/>
<path d="M290.734 24.4775C290.839 24.3887 290.938 24.2939 291.041 24.2026C291.045 24.212 291.045 24.2216 291.049 24.2309L290.734 24.4775Z" fill="#2F2E41"/>
<path d="M272.148 4.0507C272.746 3.12286 273.573 2.35314 274.557 1.811C275.229 1.49665 275.935 1.25534 276.662 1.09152L278.566 0.590612C279.541 0.299543 280.544 0.104686 281.561 0.00903172C282.972 -0.0581018 284.375 0.250028 285.617 0.899761C286.858 1.54949 287.891 2.51584 288.602 3.69326C289.177 4.67707 289.639 5.90302 290.749 6.26296C291.644 6.55319 292.62 6.1438 293.561 6.22322C294.112 6.30026 294.635 6.50722 295.083 6.82579C295.532 7.14435 295.892 7.56468 296.131 8.04952C296.6 9.02519 296.831 10.0915 296.806 11.1666C296.843 13.6073 296.349 16.0285 295.356 18.2738C294.363 20.5192 292.893 22.5388 291.041 24.2026C290.731 23.4134 291.242 22.5613 291.646 21.8063C292.055 21.0424 292.308 19.9774 291.623 19.4272C290.861 18.815 289.639 19.4087 288.738 19.0095C288.45 18.8497 288.207 18.6235 288.031 18.3512C287.855 18.0788 287.752 17.7688 287.731 17.4486C287.644 16.8143 287.735 16.1696 287.694 15.5309C287.653 14.9015 287.484 14.286 287.197 13.7196C286.91 13.1531 286.509 12.6467 286.019 12.2294C285.529 11.8121 284.958 11.492 284.34 11.2874C283.721 11.0828 283.067 10.9977 282.414 11.0369C282.399 11.0378 282.384 11.0388 282.369 11.0398C280.318 11.1812 278.326 12.5334 276.352 11.9771C275.425 11.716 274.634 11.0511 273.676 10.9393C272.614 10.8154 271.615 11.3933 270.714 11.9481C270.386 10.6067 270.345 9.21504 270.591 7.85756C270.838 6.50008 271.367 5.20498 272.148 4.0507Z" fill="#2F2E41"/>
<path d="M209.294 218.305L212.354 213.562L212.966 216.272C213.073 216.747 213.18 217.229 213.279 217.708C214.149 216.992 215.074 216.33 215.979 215.694C218.758 213.749 221.535 211.802 224.312 209.852L223.442 214.714C222.906 217.708 222.347 220.763 221.021 223.501C220.874 223.811 220.715 224.117 220.544 224.416H207.626C207.522 224.139 207.45 223.851 207.412 223.558C207.409 223.539 207.407 223.52 207.408 223.501C207.205 221.644 208.269 219.894 209.294 218.305Z" fill="#F0F0F0"/>
<path d="M194.263 224.882L319.457 225C319.582 225 319.702 224.951 319.79 224.866C319.878 224.78 319.927 224.665 319.927 224.544C319.927 224.424 319.878 224.308 319.79 224.223C319.702 224.137 319.582 224.089 319.457 224.088L194.263 223.971C194.138 223.971 194.018 224.02 193.93 224.105C193.842 224.19 193.793 224.306 193.793 224.427C193.793 224.547 193.842 224.663 193.93 224.748C194.018 224.834 194.138 224.882 194.263 224.882Z" fill="#CACACA"/>
<path d="M64.8557 74.0454C64.883 87.4481 70.1078 100.356 79.5029 110.232C88.898 120.108 101.784 126.237 115.627 127.414C129.47 128.591 143.269 124.732 154.312 116.595C165.354 108.457 172.841 96.6305 175.3 83.4394C177.759 70.2482 175.013 56.647 167.601 45.3097C160.189 33.9723 148.648 25.719 135.247 22.1722C121.845 18.6254 107.553 20.0417 95.1792 26.1428C82.8056 32.2438 73.246 42.5882 68.3797 55.1423C68.2584 55.4575 68.14 55.7727 68.0249 56.091V56.094C67.5111 57.4931 67.0587 58.9183 66.6675 60.3695C65.4607 64.8348 64.8518 69.4309 64.8557 74.0454Z" fill="#3F3D56"/>
<path d="M127.023 37.5832C129.541 36.2698 132.337 35.5284 135.198 35.4155C138.058 35.3027 140.908 35.8213 143.529 36.9319C145.836 37.9005 148.267 39.6382 149.036 42.776C145.923 41.0037 141.892 43.8039 141.091 48.2958L141.278 48.3456C141.701 51.4569 140.756 54.8443 138.927 56.7736C138.791 55.903 138.456 55.0727 137.946 54.3428C137.435 53.6129 136.763 53.0017 135.977 52.5538C134.633 51.7018 133.147 51.0829 132.121 49.6185C130.905 47.8824 130.596 45.3452 130.113 43.0306C129.63 40.7159 128.714 38.2281 127.023 37.5832Z" fill="#F8F812"/>
<path d="M144.452 64.0597C145.315 65.3087 146.467 66.0924 147.5 67.0681C148.693 68.1149 149.476 69.5261 149.717 71.0643C149.847 72.1512 149.645 73.256 149.673 74.355C149.701 75.4538 150.081 76.6908 150.856 76.964C152.08 77.3903 153.014 75.1986 154.271 75.0455C155.271 74.9254 156.17 76.4416 155.881 77.7567C155.591 79.0717 154.231 79.6542 153.449 78.7955C152.743 79.9394 153.241 82.0141 154.302 82.3654C154.414 83.0859 154.527 83.8035 154.635 84.5241C157.319 82.7136 160.031 80.8732 162.312 78.222C164.85 75.2985 166.424 71.7103 166.833 67.9178C167.129 64.8703 166.69 61.3845 168.14 59.0397C169.301 57.1632 171.294 56.7488 173.087 56.8659C173.414 56.8869 173.744 56.9229 174.071 56.962C173.013 53.8988 171.67 50.9343 170.058 48.1049C169.693 47.9538 169.354 47.7503 169.052 47.5014C167.384 46.1353 166.643 43.37 165.289 41.4575C165.202 41.3344 165.111 41.2143 165.018 41.0972C163.632 39.3528 161.777 38.4551 159.984 37.6204C156.015 35.7619 151.93 33.8794 147.74 34.1376L148.932 34.2487C150.324 38.0077 151.716 41.7668 153.11 45.5258C153.322 46.1022 153.536 46.6797 153.751 47.2582C154.542 49.3959 155.358 51.6717 155.236 54.0646C155.165 55.4818 154.654 56.995 153.683 57.4814C152.777 57.9318 151.787 57.3793 150.912 56.8329C150.542 56.6047 150.174 56.3765 149.804 56.1453C148.475 55.3196 147.002 54.473 145.598 55.0254C144.312 55.5298 143.363 57.2142 143.182 59.0306C143.017 60.7963 143.463 62.5651 144.452 64.0597Z" fill="#F8F812"/>
<path d="M136.546 89.7235C140.429 87.4181 144.311 85.1127 148.193 82.8073L148.127 82.6436C150.541 83.5303 151.544 87.6685 151.145 91.0526C150.746 94.4368 149.393 97.462 148.71 100.759C147.788 105.272 148.136 109.94 149.717 114.279C144.612 108.755 140.094 102.75 136.231 96.3566C135.691 95.5508 135.28 94.6714 135.011 93.7479C134.726 92.7636 134.827 91.7126 135.296 90.7961C135.614 90.3439 136.043 89.9753 136.546 89.7235Z" fill="#F8F812"/>
<path d="M151.869 47.7809C152.325 48.725 152.395 49.8 152.065 50.7918C151.682 51.5909 150.987 52.2116 150.132 52.5188L147.987 53.5443C147.273 53.8855 146.504 54.2301 145.776 53.9494C144.899 53.6108 144.291 52.2841 144.448 51.0524C144.615 49.7417 145.472 48.8401 146.264 48.0724C147.373 46.9979 148.482 45.9235 149.59 44.8491L150.215 45.5872C150.891 46.223 151.45 46.9647 151.869 47.7809Z" fill="#F8F812"/>
<path d="M76.3554 61.7929C75.3903 62.0121 74.4252 62.2312 73.4601 62.4504C73.6283 65.5939 75.2439 68.5033 77.4107 69.5571C78.3135 69.9955 79.319 70.1576 80.0662 70.9773C80.7417 71.7219 81.0842 72.8808 81.3986 73.9886C81.9496 75.9222 82.5007 77.8558 83.0517 79.7893C83.6432 81.873 84.4028 84.1879 85.9407 84.9384C87.2607 85.5839 88.7705 84.7943 89.7854 83.4702C90.8003 82.1462 91.4198 80.3658 92.0207 78.6304C91.9833 80.5219 92.8954 82.3774 94.1874 83.0349C95.4825 83.6924 97.0577 83.0979 97.9231 81.6298C98.5458 80.5759 98.8042 79.1858 99.4144 78.1169C100.025 77.0481 101.304 76.4356 101.97 77.4384C102.409 78.105 102.353 79.1258 102.571 79.9725C102.681 80.5346 102.969 81.0497 103.397 81.4463C103.824 81.8429 104.369 82.1012 104.956 82.1852C105.495 82.1733 106.026 82.0556 106.517 81.8393C107.008 81.6231 107.448 81.3127 107.81 80.9272C109.717 79.0465 110.958 76.6326 111.356 74.0307C111.626 72.7832 111.592 71.4922 111.257 70.2596C110.874 69.0917 109.949 68.191 109.031 68.4132C108.427 67.1821 109.619 65.5489 110.693 65.693C111.77 65.8371 112.614 66.951 113.498 67.8067C114.379 68.6624 115.612 69.2839 116.499 68.4342C116.479 68.7449 116.588 69.0506 116.802 69.2839C117.016 69.5172 117.317 69.659 117.639 69.6781C117.671 69.68 117.703 69.6807 117.735 69.6802C118.325 69.5168 118.873 69.2367 119.345 68.8575C121.378 67.6355 123.958 68.4462 125.403 70.758C124.5 67.053 123.177 62.8016 120.403 61.9309C119.27 61.5737 118.034 61.8679 116.963 61.2494C115.067 60.1535 114.684 56.0132 116.322 54.3048C116.113 55.9201 116.154 57.8056 117.038 58.9106C117.922 60.0155 119.777 59.2948 119.665 57.6615C119.69 57.8913 119.79 58.1074 119.951 58.279C120.111 58.4506 120.324 58.5689 120.558 58.6169C120.792 58.6649 121.036 58.6401 121.255 58.5462C121.474 58.4522 121.656 58.2939 121.776 58.0939C122.364 57.2292 122.315 55.8151 121.897 54.7822C121.467 53.8468 120.851 53.0021 120.082 52.2963C118.604 50.7681 117.103 49.2218 115.391 48.261C113.676 47.3003 111.696 46.976 109.977 47.9308C109.071 48.4352 108.274 49.2759 107.35 49.7202C107.132 49.8502 106.891 49.9377 106.638 49.9776C106.386 50.0176 106.128 50.0092 105.879 49.9529C105.63 49.8967 105.395 49.7937 105.187 49.6499C104.98 49.5061 104.803 49.3242 104.669 49.1146C104.658 49.0985 104.648 49.0821 104.638 49.0656C103.95 47.9007 104.274 46.1713 104.019 44.7152C103.561 42.1421 100.893 40.9381 99.4143 42.6375C100.519 42.3643 101.662 43.6253 101.799 45.1536C101.939 46.6818 101.139 48.225 100.068 48.6874C98.2686 49.456 96.5066 47.5224 95.1462 45.733C93.7266 43.8595 92.305 41.987 90.8812 40.1155C90.6539 39.7969 90.3987 39.4975 90.1185 39.2208C89.6726 38.8016 89.0781 38.5616 88.4556 38.5493C87.833 38.5371 87.2289 38.7535 86.7657 39.1547C85.3274 40.2866 84.6518 42.6075 83.4719 44.2048C81.7597 46.5256 79.1976 47.0901 76.813 47.5405C75.0354 47.8737 73.2567 48.209 71.477 48.5463C70.2907 50.6748 69.2558 52.8787 68.3794 55.1426C71.643 56.5778 74.4112 58.8859 76.3554 61.7929Z" fill="#F8F812"/>
<path d="M66.6673 60.3697C67.032 61.4065 67.2314 62.4907 67.2588 63.5852C68.7842 61.7898 69.0271 58.4241 68.0246 56.0942C67.5109 57.4933 67.0585 58.9185 66.6673 60.3697Z" fill="#F8F812"/>
<path d="M70.6085 97.9179C71.9423 100.53 73.4936 103.033 75.2471 105.403C76.3678 104.941 77.5726 105.766 78.6218 106.541C79.7176 107.351 81.0344 108.141 82.1583 107.402C83.307 106.646 83.6775 104.529 83.3132 102.851C82.8946 101.303 82.1625 99.8495 81.159 98.5754C80.225 97.2303 79.2257 95.8342 77.9275 95.3118C76.6262 94.7894 74.9545 95.5279 74.5747 97.3114L73.6532 97.2813C74.17 96.5968 73.8991 95.1796 73.2048 94.9305C72.4048 94.6392 71.7105 95.699 71.2374 96.6359C71.0257 97.0592 70.8109 97.4856 70.6085 97.9179Z" fill="#F8F812"/>
<path d="M105.901 85.2359C107.882 85.356 109.451 83.0044 110.493 80.691C111.536 78.3775 112.487 75.732 114.274 74.5544C115.295 73.8815 116.46 73.7893 117.567 73.4632C118.195 73.3102 118.777 73.0149 119.263 72.602C119.749 72.189 120.127 71.6702 120.364 71.0886L121.62 70.5991C123.378 71.4464 124.987 72.5532 126.39 73.8795C127.994 75.5224 128.993 77.6283 129.233 79.8727C129.473 82.2982 128.587 85.0027 126.931 85.9138C125.622 86.6337 124.099 86.1799 122.773 86.839C121.117 87.6624 120.134 90.0545 119.762 92.4164C119.39 94.7782 119.484 97.2327 119.218 99.6213C118.951 102.01 118.218 104.495 116.699 105.72C114.798 107.251 112.01 105.978 111.157 103.19C110.739 101.822 110.753 100.279 110.44 98.8591C109.89 96.3588 108.403 94.5038 107.224 92.4528C106.045 90.4018 105.117 87.6162 105.901 85.2359Z" fill="#F8F812"/>
<path d="M125.473 60.6669C125.288 60.8309 125.116 61.0073 124.957 61.195C124.793 61.4681 124.709 61.7793 124.715 62.095C124.72 62.4107 124.815 62.719 124.989 62.9865C124.75 62.9734 124.517 62.9128 124.304 62.8083C124.091 62.7039 123.903 62.558 123.751 62.3799C123.39 61.9828 123.072 61.5508 122.802 61.0907C122.676 60.9331 122.585 60.7513 122.537 60.5574C122.489 60.3635 122.484 60.162 122.522 59.9661C122.616 59.7086 122.837 59.5987 122.992 59.405C123.207 59.0263 123.354 58.6152 123.426 58.1891C123.512 57.7897 123.712 57.4214 124.003 57.1255C124.294 56.8296 124.665 56.6179 125.074 56.5142L124.975 56.5325C125.144 56.6292 125.277 56.7744 125.357 56.9479C125.436 57.1213 125.456 57.3143 125.416 57.4997C125.356 57.8744 125.106 58.1855 125.131 58.5676C125.167 59.117 125.736 59.3749 125.772 59.9244C125.777 60.2001 125.67 60.4668 125.473 60.6669Z" fill="#F8F812"/>
<path d="M128.867 51.3299L128.858 51.3282C128.797 51.2744 128.74 51.2161 128.689 51.1538L128.867 51.3299Z" fill="#F8F812"/>
<path d="M128.272 53.9085C128.035 53.7072 127.859 53.4467 127.764 53.1555C127.669 52.8642 127.659 52.5535 127.735 52.2571C127.879 51.6324 128.388 51.2123 128.858 51.3277C128.994 51.4609 129.163 51.5586 129.349 51.6114C129.535 51.6643 129.732 51.6706 129.922 51.6298C130.212 51.5577 130.531 51.372 130.783 51.5831C130.927 51.7407 131.028 51.9306 131.076 52.1354C131.169 52.4114 131.263 52.6874 131.356 52.9634C131.4 53.0622 131.412 53.1718 131.389 53.2771C131.371 53.3194 131.342 53.3564 131.305 53.3848C131.268 53.4132 131.224 53.4319 131.178 53.4392C130.618 53.5982 130.059 53.7573 129.5 53.9163C129.307 54.0019 129.097 54.0455 128.885 54.0442C128.673 54.0429 128.464 53.9965 128.272 53.9085Z" fill="#F8F812"/>
<path d="M86.0456 89.5166C86.3041 89.1083 86.5627 88.7001 86.8213 88.2918C87.0752 87.819 87.4224 87.3985 87.8434 87.054C87.9346 86.9803 88.0399 86.9247 88.1534 86.8903C88.2668 86.8559 88.3862 86.8434 88.5047 86.8535C88.6232 86.8636 88.7384 86.8961 88.8439 86.9491C88.9493 87.0022 89.0429 87.0747 89.1193 87.1627L89.1328 87.1786L89.1013 87.4118C88.409 88.1276 87.9372 89.0154 87.7389 89.9754C87.68 90.3927 87.7005 90.8245 87.6488 91.2435C87.6433 91.4378 87.5982 91.6292 87.516 91.8067C87.4338 91.9842 87.3162 92.1443 87.1698 92.2778C86.7626 92.5402 86.2846 92.1534 85.9948 91.6815C85.7358 91.2938 85.6196 90.8334 85.6649 90.3743C85.7295 90.0662 85.8591 89.7743 86.0456 89.5166Z" fill="#F8F812"/>
<path d="M81.9892 90.0481C81.9399 89.6659 81.9721 89.278 82.0839 88.9082C82.1024 88.4079 81.9648 87.9138 81.6891 87.4897C81.4151 87.0896 81.2076 86.6507 81.0739 86.1889C81.0175 85.9785 81.0278 85.7566 81.1034 85.5519C81.1889 85.3665 81.3963 85.2819 81.5152 85.4287L81.2607 85.5868C81.6043 85.5277 81.9573 85.5442 82.2934 85.635C82.4851 85.7058 82.6563 85.8201 82.7925 85.9682C82.9288 86.1163 83.026 86.2939 83.076 86.4859C83.118 86.7853 83.1867 87.0807 83.2812 87.3688C83.4331 87.6697 83.7269 87.7697 83.9115 88.0339C84.0374 88.268 84.101 88.5287 84.0965 88.7924C84.0919 89.0561 84.0195 89.3146 83.8856 89.5445C83.6537 89.9207 83.2851 90.2003 82.8513 90.3289C82.5406 90.4365 82.1314 90.4421 81.9892 90.0481Z" fill="#F8F812"/>
<path d="M74.7661 92.1498C74.6538 92.4317 74.5033 92.6981 74.3185 92.942C73.9727 93.278 73.5028 93.0715 73.0832 92.9899C72.7025 92.9319 72.3127 92.9744 71.955 93.1127C71.5973 93.2511 71.285 93.4802 71.0514 93.7758C71.2141 92.9933 71.5692 92.2599 72.0868 91.6371C72.6043 91.0143 73.2693 90.5205 74.0258 90.197C75.0089 89.8688 76.0448 89.7126 77.0848 89.7356L77.2625 89.7795C76.8098 91.0503 75.3883 91.0219 74.7661 92.1498Z" fill="#F8F812"/>
<path d="M105.359 94.7495L105.357 94.7551L105.304 94.6587L105.359 94.7495Z" fill="#F8F812"/>
<path d="M106.455 96.7944C106.694 97.2128 106.899 97.6482 107.07 98.0968C107.295 98.8235 107.444 99.57 107.515 100.325C107.571 100.755 107.588 101.303 107.309 101.513C107.229 101.564 107.132 101.585 107.037 101.573C106.942 101.56 106.854 101.515 106.791 101.445C106.636 101.287 106.51 101.105 106.416 100.907C105.868 99.996 105.442 99.0215 105.149 98.0068C104.843 96.9303 104.916 95.7866 105.357 94.7544C105.723 95.4344 106.089 96.1144 106.455 96.7944Z" fill="#F8F812"/>
<path d="M117.026 42.2959C116.852 42.46 116.632 42.5714 116.393 42.6164C116.154 42.6613 115.907 42.6379 115.682 42.549C115.215 42.3523 114.787 42.0797 114.416 41.7431C114.11 41.5241 113.849 41.2502 113.65 40.9363C113.54 40.7487 113.469 40.542 113.442 40.3281C113.415 40.1142 113.432 39.8973 113.493 39.6898C113.578 39.491 113.715 39.3166 113.89 39.183C114.066 39.0494 114.273 38.9611 114.493 38.9264C115.114 38.7488 115.735 38.5713 116.356 38.3937L115.907 38.0033C116.369 37.7642 116.88 38.208 117.169 38.7576C117.354 39.1164 117.483 39.4997 117.552 39.895C117.65 40.3081 117.654 40.7368 117.563 41.1514C117.472 41.566 117.289 41.9565 117.026 42.2959Z" fill="#F8F812"/>
<path d="M106.065 38.7471C105.89 38.9331 105.648 39.048 105.388 39.0684C105.129 39.0888 104.871 39.0131 104.667 38.8568C104.491 38.7297 104.346 38.5683 104.239 38.3833C104.133 38.1983 104.068 37.9936 104.049 37.7828C104.005 37.3118 104.246 36.7883 104.591 36.7476L104.512 36.3066C105.176 36.1909 105.994 36.1677 106.35 36.9458C106.47 37.2439 106.507 37.5671 106.457 37.8832C106.407 38.1993 106.272 38.4972 106.065 38.7471Z" fill="#F8F812"/>
<g opacity="0.35">
<path d="M0.959534 76.7081C-2.70683 75.1664 4.72855 74.2689 13.1643 73.9738C21.6001 73.6787 31.8049 73.6951 37.1958 72.8557C42.4096 72.044 42.0254 70.6007 42.464 69.2929C42.9026 67.9852 44.9069 66.6444 53.0425 66.3537C63.1805 65.9915 79.8987 67.3858 87.5518 66.5487C94.6935 65.7675 90.4483 63.3171 100.862 63.2233C106.809 63.1698 114.47 63.9776 121.087 64.1726C125.777 64.3688 130.476 64.1325 135.12 63.467C138.345 62.9574 140.591 62.3113 144.221 61.8612C153.75 60.6794 172.395 61.0766 189.036 62.5912C205.676 64.1058 219.941 66.588 227.985 69.0464C236.03 71.5048 238.252 73.9254 236.378 75.978C235.182 77.2887 232.12 78.5143 224.692 79.0409C210.799 80.0261 186.064 78.3304 171.708 79.2267C163.707 79.7262 160.157 80.9647 153.137 81.6424C145.594 82.3704 134.554 82.409 123.706 82.3918C101.119 82.3558 77.9553 82.132 54.335 81.7216C44.4692 81.5501 34.1318 81.3273 23.6337 80.5103C13.1357 79.6933 2.42802 78.117 0.213242 76.6393" fill="white"/>
</g>
<path d="M64.7018 144.803C69.8278 144.803 75.446 144.616 81.5566 144.243C113.163 142.307 154.102 135.577 196.833 125.293C239.565 115.01 278.983 102.4 307.826 89.7881C321.877 83.6443 332.661 77.8286 339.878 72.5025C347.519 66.8639 350.861 61.949 349.812 57.8948C347.768 49.9966 329.672 48.2687 314.851 48.21L314.846 49.3586C335.199 49.4392 347.206 52.5696 348.656 58.173C350.503 65.3098 335.442 76.4516 307.335 88.742C278.554 101.326 239.209 113.912 196.545 124.179C153.881 134.447 113.017 141.165 81.481 143.096C50.683 144.983 31.9591 141.972 30.1125 134.835C28.5794 128.909 38.6868 120.18 58.5726 110.255L58.0252 109.235C43.5759 116.447 26.8036 126.79 28.9568 135.113C30.0059 139.167 35.3506 141.991 44.8425 143.506C50.2532 144.37 56.8992 144.803 64.7018 144.803Z" fill="#F8F812"/>
<path d="M260.281 146.299C274.414 146.299 287.552 145.832 299.314 144.888C314.689 143.654 326.871 141.671 335.524 138.993C344.685 136.158 349.546 132.612 349.97 128.453C350.797 120.352 334.355 112.861 320.416 108.003L320.011 109.083C339.153 115.755 349.371 122.593 348.785 128.341C348.038 135.661 329.971 141.275 299.216 143.743C267.724 146.27 226.282 145.375 182.521 141.22C138.761 137.066 97.9321 130.153 67.556 121.753C37.8904 113.549 21.3046 104.646 22.0517 97.3259C22.672 91.2482 35.2328 86.3018 57.4203 83.3974L57.2603 82.2593C41.1385 84.3696 21.7376 88.6769 20.8665 97.2133C20.442 101.372 24.4924 105.764 32.9044 110.267C40.85 114.52 52.3981 118.756 67.2277 122.857C97.671 131.275 138.575 138.203 182.405 142.363C209.9 144.973 236.493 146.299 260.281 146.299Z" fill="#F8F812"/>
<path d="M176.178 170.559C172.345 170.559 169.238 167.562 169.238 163.866C169.238 160.169 172.345 157.172 176.178 157.172C180.011 157.172 183.119 160.169 183.119 163.866C183.119 167.562 180.011 170.559 176.178 170.559Z" fill="#F8F812"/>
<path d="M312.852 131.04C309.019 131.04 305.911 128.043 305.911 124.346C305.911 120.649 309.019 117.652 312.852 117.652C316.685 117.652 319.792 120.649 319.792 124.346C319.792 128.043 316.685 131.04 312.852 131.04Z" fill="#E6E6E6"/>
<path d="M185.418 28.4374C183.072 28.4374 181.17 26.6029 181.17 24.3398C181.17 22.0768 183.072 20.2422 185.418 20.2422C187.765 20.2422 189.667 22.0768 189.667 24.3398C189.667 26.6029 187.765 28.4374 185.418 28.4374Z" fill="#FF6584"/>
<path d="M211.125 59.3699C207.291 59.3699 204.184 56.373 204.184 52.6762C204.184 48.9793 207.291 45.9824 211.125 45.9824C214.958 45.9824 218.065 48.9793 218.065 52.6762C218.065 56.373 214.958 59.3699 211.125 59.3699Z" fill="#E6E6E6"/>
</g>
<defs>
<clipPath id="clip0_208_4">
<rect width="350" height="225" fill="white" transform="matrix(-1 0 0 1 350 0)"/>
</clipPath>
</defs>
</svg>
