<svg width="189" height="191" viewBox="0 0 189 191" fill="none" xmlns="http://www.w3.org/2000/svg">
<path d="M154.863 59.8352C154.747 60.3297 154.672 60.8323 154.638 61.3383L114.361 84.0506L104.571 78.5416L94.134 91.8969L110.496 103.296C111.817 104.217 113.409 104.693 115.032 104.655C116.655 104.616 118.221 104.064 119.495 103.081L161.028 71.0541C162.902 71.7323 164.944 71.8367 166.88 71.3532C168.817 70.8698 170.557 69.8216 171.869 68.348C173.181 66.8743 174.003 65.0451 174.226 63.1037C174.448 61.1622 174.061 59.2005 173.115 57.4795C172.169 55.7584 170.71 54.3596 168.931 53.4692C167.152 52.5787 165.138 52.2387 163.156 52.4944C161.175 52.7501 159.32 53.5895 157.839 54.9008C156.357 56.2121 155.319 57.9332 154.863 59.8352Z" fill="#FFB8B8"/>
<path d="M113.809 81.7809C113.687 81.2 113.438 80.6516 113.08 80.1729C112.722 79.6943 112.262 79.2967 111.733 79.007L93.2509 68.9051C90.795 67.0528 87.6879 66.2281 84.6109 66.6115C81.5338 66.995 78.7379 68.5555 76.8361 70.9508C74.9342 73.3461 74.0816 76.3808 74.4652 79.3895C74.8489 82.3983 76.4374 85.1356 78.8825 87.0014L93.6175 101.958C94.0381 102.385 94.5479 102.718 95.1122 102.935C95.6765 103.152 96.282 103.248 96.8875 103.216C97.493 103.184 98.0844 103.024 98.6212 102.749C99.1581 102.473 99.6279 102.088 99.9987 101.619L102.868 97.9799L103.849 96.741L113.016 85.1274C113.351 84.7036 113.596 84.2189 113.737 83.7016C113.917 83.0759 113.941 82.4176 113.809 81.7809Z" fill="#F8F812"/>
<path d="M87.0494 50.9778C96.0427 42.1872 96.0427 27.9348 87.0494 19.1443C78.0561 10.3537 63.4752 10.3537 54.4819 19.1443C45.4886 27.9348 45.4886 42.1872 54.4819 50.9778C63.4752 59.7684 78.0561 59.7684 87.0494 50.9778Z" fill="#FFB8B8"/>
<path d="M99.8831 120.26C100.808 118.909 106.687 109.785 104.463 99.0904C104.299 98.2975 104.094 97.5133 103.849 96.741C102.801 93.522 101.127 90.5312 98.9184 87.9326C98.9465 87.2157 98.9385 86.5106 98.8947 85.8093V85.8054C98.5697 80.933 96.4548 76.3393 92.9394 72.8702C89.424 69.4011 84.7448 67.2902 79.7634 66.926L54.0077 65.0132C50.6926 64.7489 47.3614 65.2761 44.3009 66.5492C41.2405 67.8224 38.5423 69.8034 36.4388 72.3218C35.9543 72.8958 35.5006 73.494 35.0796 74.1139L35.0781 74.1142L35.0768 74.1151L35.0759 74.1163L35.0757 74.1178C33.4517 76.5135 32.3741 79.2227 31.9161 82.0615C31.4581 84.9003 31.6303 87.8021 32.4211 90.5701L35.3865 103.282L44.2268 141.193C44.4411 142.103 44.9643 142.915 45.7112 143.497C46.4581 144.08 47.3847 144.398 48.34 144.399C48.5697 144.4 48.7991 144.382 49.0256 144.345L98.8627 136.358C99.5661 136.248 100.229 135.964 100.788 135.532C101.123 135.271 101.418 134.962 101.661 134.617C101.985 134.158 102.21 133.638 102.321 133.091C102.432 132.543 102.427 131.979 102.306 131.434L99.8831 120.26Z" fill="#F8F812"/>
<path d="M1.80223 186.732C0.956923 185.553 0.386266 184.208 0.130453 182.791C-0.12536 181.373 -0.0601062 179.918 0.321619 178.528C0.703343 177.138 1.39226 175.846 2.33983 174.745C3.2874 173.643 4.47058 172.758 5.80603 172.151L34.1815 86.8755L50.6257 94.5024L19.5784 177.534C20.4719 179.795 20.4861 182.297 19.6183 184.567C18.7504 186.837 17.0609 188.717 14.8697 189.851C12.6786 190.985 10.1381 191.293 7.72971 190.718C5.32128 190.144 3.21224 188.725 1.80223 186.732Z" fill="#FFB8B8"/>
<path d="M50.4324 66.7314C47.3925 65.8375 44.1191 66.102 41.2707 67.4717C38.4223 68.8414 36.2103 71.2145 35.0796 74.1139L35.0781 74.1142L35.0768 74.1151L35.0759 74.1163L35.0757 74.1178C34.972 74.3788 34.8763 74.6517 34.7926 74.9244L25.1273 94.9648C24.8497 95.5385 24.702 96.164 24.6944 96.7986C24.6868 97.4332 24.8193 98.0619 25.083 98.6418C25.3468 99.2218 25.7354 99.7393 26.2225 100.159C26.7095 100.579 27.2835 100.891 27.9052 101.074L35.3865 103.282L49.739 107.521C50.3605 107.705 51.0152 107.755 51.6584 107.669C52.3016 107.583 52.9183 107.362 53.4664 107.022C54.0145 106.682 54.4812 106.23 54.8345 105.698C55.1879 105.165 55.4197 104.565 55.5142 103.937L58.8304 81.9487C59.7725 78.8423 59.418 75.4976 57.8442 72.646C56.2705 69.7944 53.6057 67.6679 50.4324 66.7314Z" fill="#F8F812"/>
<path d="M91.9116 26.8758C83.7058 33.8923 71.1085 35.5214 61.3182 30.8324C65.7161 35.9321 74.0682 61.1063 74.0682 61.1063C74.0682 61.1063 50.4852 58.6836 47.1532 57.9873C27.4736 53.8739 34.627 4.05595 55.5967 4.30747C59.1484 4.35005 62.2532 4.76987 64.6171 7.36107C66.1862 3.06206 71.1754 0.529669 75.833 0.857491C80.4906 1.18531 84.7026 3.91983 87.6988 7.42075C90.0898 10.2551 91.8156 13.5675 92.7546 17.1246C93.6936 20.6817 93.823 24.3968 93.1335 28.0081L91.9116 26.8758Z" fill="#2F2E41"/>
<path d="M186.548 169.758C184.679 173.552 181.634 176.622 178.198 179.217C166.97 181.576 155.563 183.033 144.092 183.572C143.534 183.6 142.976 183.627 142.414 183.646C139.429 183.767 136.421 183.828 133.391 183.83C128.122 183.83 122.915 183.646 117.771 183.28C117.575 182.124 117.548 180.946 117.691 179.782C118.261 175.227 121.796 171.043 126.384 170.077C130.971 169.111 136.201 171.787 137.592 176.166C138.361 167.72 139.242 158.923 143.837 151.732C147.994 145.222 155.196 140.562 163.004 139.728C167.593 139.261 172.223 140.09 176.345 142.116C176.723 142.303 177.098 142.498 177.468 142.701C179.942 144.071 182.125 145.892 183.898 148.065C188.768 154.088 189.96 162.846 186.548 169.758Z" fill="white"/>
<path d="M177.468 142.701C177.478 142.803 177.46 142.906 177.417 142.999C177.374 143.093 177.306 143.174 177.222 143.234C163.388 154.242 152.097 167.991 144.092 183.572C143.534 183.6 142.976 183.627 142.414 183.646C143.124 182.24 143.86 180.848 144.622 179.47C148.584 172.336 153.243 165.594 158.536 159.34C163.829 153.081 169.737 147.346 176.177 142.217C176.228 142.177 176.285 142.143 176.345 142.116C176.457 142.07 176.578 142.047 176.701 142.052C176.823 142.058 176.942 142.089 177.05 142.145C177.158 142.201 177.251 142.28 177.324 142.376C177.396 142.473 177.446 142.584 177.468 142.701Z" fill="#F2F2F2"/>
</svg>
